# xmcd
#
# Track frame offsets: 
#        150
#        13909
#        24716
#        44517
#        67378
#        86667
#        105379
#        120432
#        134089
#        151417
#        166664
#        186677
#        204454
#        221028
#        240693
#
# Disc length: 3367 seconds
#
# Revision: 0
# Processed by: cddbd v1.5.2PL0 Copyright (c) Steve Scherf et al.
# Submitted via: ExactAudioCopy v0.99pb4
#
DISCID=e00d250f
DTITLE=Hari Priya - Priya's Blues
DYEAR=2012
DGENRE=Blues
TTITLE0=Ten Tousend Dreams
TTITLE1=Easy Days
TTITLE2=Once More
TTITLE3=Life on Plant Earth
TTITLE4=Dein Kuss
TTITLE5=Kiss my Face
TTITLE6=The Rhythm
TTITLE7=Go Home
TTITLE8=Yesterday
TTITLE9=Forget it
TTITLE10=I'm sorry
TTITLE11=Strada della mia Vita
TTITLE12=Remember me II
TTITLE13=The Witch
TTITLE14=Forever in your Heart
EXTD=
EXTT0=
EXTT1=
EXTT2=
EXTT3=
EXTT4=
EXTT5=
EXTT6=
EXTT7=
EXTT8=
EXTT9=
EXTT10=
EXTT11=
EXTT12=
EXTT13=
EXTT14=
PLAYORDER=
